<?xml version="1.0" encoding="utf-8"?>
<!-- Generator: Adobe Illustrator 19.2.1, SVG Export Plug-In . SVG Version: 6.00 Build 0)  -->
<svg version="1.1" id="Capa_1" xmlns="http://www.w3.org/2000/svg" xmlns:xlink="http://www.w3.org/1999/xlink" x="0px" y="0px"
	 viewBox="0 0 458 91.6" enable-background="new 0 0 458 91.6" xml:space="preserve">
<g>
	<path fill="#F6F6F6" d="M104.3,22.1h2v13.2c1.5-5.9,7.9-14.3,19.3-14.3c13,0,20.2,8.8,20.2,22v27.2h-2v-27c0-12-6.3-20.3-18.4-20.3
		c-10.7,0-19.2,9.1-19.2,20.7v26.7h-2V22.1z"/>
	<path fill="#F6F6F6" d="M159.4,46.2V46c0-14.2,9.7-25,23.1-25c15.2,0,22.1,13.4,22.1,25.4c0,0.2,0,0.3,0,0.4h-43
		c0.4,13.9,10.1,22.7,21.9,22.7c7.4,0,14-4.3,17.8-9.7l1.6,1.2c-4.1,6-11.1,10.5-19.5,10.5C170.3,71.4,159.4,61.7,159.4,46.2z
		 M202.4,44.9c-0.4-11-7.3-22-20-22c-11.9,0-20.3,9.4-20.8,22H202.4z"/>
	<path fill="#F6F6F6" d="M215.7,46.3v-0.2c0-14,10.1-25.1,24.1-25.1c11.2,0,19.4,6.9,22.2,16.1V0h2v70.3h-2V55.3
		c-2.8,9.1-11.1,16.1-22.2,16.1C225.8,71.4,215.7,60.2,215.7,46.3z M262.1,46.3v-0.2c0-12.4-9.2-23.2-22.2-23.2
		c-13.2,0-22,10.2-22,23.1v0.2c0,12.8,8.9,23.3,22,23.3C252.9,69.5,262.1,58.8,262.1,46.3z"/>
	<path fill="#F6F6F6" d="M278.5,46.2V46c0-14.2,9.7-25,23.1-25c15.2,0,22.1,13.4,22.1,25.4c0,0.2,0,0.3,0,0.4h-43
		c0.4,13.9,10.1,22.7,21.9,22.7c7.4,0,14-4.3,17.8-9.7l1.6,1.2c-4.1,6-11.1,10.5-19.5,10.5C289.4,71.4,278.5,61.7,278.5,46.2z
		 M321.5,44.9c-0.4-11-7.3-22-20-22c-11.9,0-20.3,9.4-20.8,22H321.5z"/>
	<path fill="#F6F6F6" d="M338,22.1h2v15.4c2.2-8,9.1-16.6,19.8-16.6v1.9c-0.2,0-0.3,0-0.5,0c-12,0-19.3,13.2-19.3,22.4v24.9h-2V22.1
		z"/>
	<path fill="#F6F6F6" d="M370.8,0h2v70.3h-2V0z"/>
	<path fill="#F6F6F6" d="M391.4,2.9h3v5.5h-3V2.9z M391.9,22.1h2v48.1h-2V22.1z"/>
	<path fill="#F6F6F6" d="M458,70.3h-2V56.7c0,0-0.7,3-4.9,7.3c-5,5-11.1,7.6-18.2,7.6c-7,0-13.1-2.5-18.1-7.5
		c-5-5-7.5-11.1-7.5-18.1c0-7.1,2.5-13.2,7.5-18.2c5-5,11.1-7.5,18.1-7.5c7.1,0,13.2,2.5,18.2,7.5c3.7,3.4,4.9,7.8,4.9,7.8L456,24.4
		h2.1V70.3z M456,50.5v-9.2c-0.9-4.6-3-8.5-6.4-12c-4.6-4.6-10.1-6.9-16.6-6.9c-6.5,0-12,2.3-16.6,6.9c-4.6,4.6-6.9,10.1-6.9,16.6
		s2.3,12,6.9,16.5c4.6,4.6,10.1,6.8,16.6,6.8c6.5,0,12-2.3,16.6-6.9C453,59,455.2,55,456,50.5z"/>
</g>
<path fill="#F6F6F6" d="M38.1,3.6L0,25.6v44c0,0,5.9,22,38.1,22s38.1-22,38.1-22v-44L38.1,3.6z M55,68.7h-7.4V48.1
	c0-3.8-1.2-10.2-8.9-10.2c-5.3,0-9.4,4.6-9.4,10.4v20.4h-7.4V31.3h7.4v2.3c2.5-1.8,5.7-3,9.5-3c9.8,0,16.2,6.8,16.2,17.4V68.7z"/>
</svg>
